<svg xmlns="http://www.w3.org/2000/svg" width="654" height="242"><svg id="barcodeSVG" role="img" aria-label="Barcode preview" width="652px" height="240px" x="0px" y="0px" viewBox="0 0 652 240" xmlns="http://www.w3.org/2000/svg" version="1.1" style="transform: translate(0,0)"><rect x="0" y="0" width="652" height="240" style="fill:#ffffff;"/><g transform="translate(0, 0)" style="fill:#000000;"><rect x="0" y="0" width="8" height="240"/><rect x="12" y="0" width="4" height="240"/><rect x="24" y="0" width="8" height="240"/><rect x="36" y="0" width="4" height="240"/><rect x="48" y="0" width="8" height="240"/><rect x="60" y="0" width="8" height="240"/><rect x="72" y="0" width="4" height="240"/><rect x="84" y="0" width="4" height="240"/><rect x="96" y="0" width="8" height="240"/><rect x="108" y="0" width="4" height="240"/><rect x="120" y="0" width="4" height="240"/><rect x="132" y="0" width="4" height="240"/><rect x="144" y="0" width="4" height="240"/><rect x="156" y="0" width="4" height="240"/><rect x="168" y="0" width="4" height="240"/><rect x="180" y="0" width="4" height="240"/><rect x="192" y="0" width="8" height="240"/><rect x="204" y="0" width="4" height="240"/><rect x="216" y="0" width="4" height="240"/><rect x="228" y="0" width="8" height="240"/><rect x="240" y="0" width="4" height="240"/><rect x="252" y="0" width="4" height="240"/><rect x="264" y="0" width="4" height="240"/><rect x="276" y="0" width="8" height="240"/><rect x="288" y="0" width="8" height="240"/><rect x="300" y="0" width="4" height="240"/><rect x="312" y="0" width="8" height="240"/><rect x="324" y="0" width="4" height="240"/><rect x="336" y="0" width="4" height="240"/><rect x="348" y="0" width="4" height="240"/><rect x="360" y="0" width="4" height="240"/><rect x="372" y="0" width="4" height="240"/><rect x="384" y="0" width="8" height="240"/><rect x="396" y="0" width="4" height="240"/><rect x="408" y="0" width="4" height="240"/><rect x="420" y="0" width="8" height="240"/><rect x="432" y="0" width="4" height="240"/><rect x="444" y="0" width="4" height="240"/><rect x="456" y="0" width="4" height="240"/><rect x="468" y="0" width="8" height="240"/><rect x="480" y="0" width="8" height="240"/><rect x="492" y="0" width="4" height="240"/><rect x="504" y="0" width="8" height="240"/><rect x="516" y="0" width="4" height="240"/><rect x="528" y="0" width="4" height="240"/><rect x="540" y="0" width="4" height="240"/><rect x="552" y="0" width="8" height="240"/><rect x="564" y="0" width="4" height="240"/><rect x="576" y="0" width="8" height="240"/><rect x="588" y="0" width="4" height="240"/><rect x="600" y="0" width="8" height="240"/><rect x="612" y="0" width="8" height="240"/><rect x="624" y="0" width="8" height="240"/><rect x="636" y="0" width="4" height="240"/><rect x="648" y="0" width="4" height="240"/></g></svg></svg>